<svg width="128" height="129" viewBox="0 0 128 129" fill="none" xmlns="http://www.w3.org/2000/svg">
<g clip-path="url(#clip0_1130_491)">
<path d="M0.22998 32.212C-0.967234 26.5795 2.62823 21.043 8.26068 19.8457L96.622 1.06396C102.254 -0.13325 107.791 3.46222 108.988 9.09466L127.77 97.456C128.967 103.088 125.372 108.625 119.739 109.822L31.378 128.604C25.7455 129.801 20.209 126.206 19.0118 120.573L0.22998 32.212Z" fill="#171717"/>
<path d="M52.0351 34.7753C53.8233 36.6193 52.3752 39.3914 49.9002 40.0788L48.317 40.5184C47.0901 40.8592 45.8322 40.1613 44.8353 39.369C44.2354 38.8802 43.5105 38.5458 42.6606 38.3658C41.822 38.1683 40.8706 38.1826 39.8065 38.4088C38.3828 38.7114 37.2462 39.2686 36.3967 40.0805C35.5441 40.8779 35.2233 41.7728 35.4342 42.7651C35.6023 43.556 36.0608 44.1575 36.8097 44.5694C37.5586 44.9814 38.7376 45.1892 40.3467 45.1929L46.6002 45.1263C49.962 45.1031 52.5898 45.6568 54.4835 46.7874C56.3771 47.9179 57.5777 49.6768 58.0851 52.064C58.5466 54.2355 58.3117 56.277 57.3803 58.1884C56.4633 60.0968 54.9952 61.7465 52.9762 63.1376C50.9686 64.5113 48.5267 65.5038 45.6505 66.1151C41.2644 67.0474 37.5758 66.877 34.5847 65.604C33.2751 65.0368 32.1453 64.2978 31.1952 63.3871C29.1879 61.4629 30.7482 58.4453 33.434 57.7254L33.6727 57.6614C35.8008 57.091 37.966 58.4895 40.0106 59.3102C41.2071 59.7774 42.6251 59.8367 44.2645 59.4883C45.8751 59.1459 47.1037 58.5616 47.9501 57.7354C48.8079 56.8917 49.1385 55.9722 48.942 54.9769C48.7503 54.1459 48.2528 53.5377 47.4494 53.1523C46.643 52.7526 45.4902 52.5617 43.991 52.5798L38.0101 52.6562C34.6369 52.6968 31.9897 52.0871 30.0685 50.8271C28.1617 49.564 26.9455 47.6957 26.4197 45.2223C25.9673 43.0939 26.1528 41.1381 26.9762 39.3548C27.814 37.5685 29.194 36.0352 31.1163 34.7548C33.053 33.4714 35.4378 32.5286 38.2708 31.9264C42.4556 31.0369 45.9367 31.2214 48.7143 32.4797C50.0082 33.0615 51.1152 33.8267 52.0351 34.7753Z" fill="white"/>
<path d="M75.6351 59.7192C73.5211 60.1685 71.5593 60.2022 69.7496 59.8204C67.9369 59.4241 66.3944 58.6021 65.1222 57.3545C63.8613 56.0894 62.9985 54.3639 62.5339 52.178C62.1426 50.3373 62.152 48.7196 62.5619 47.3248C62.9719 45.93 63.6783 44.7277 64.6811 43.718C65.6839 42.7082 66.8847 41.8517 68.2834 41.1486C69.6964 40.4424 71.2058 39.836 72.8116 39.3294C74.6958 38.7184 76.2092 38.2014 77.3517 37.7782C78.4912 37.3406 79.2888 36.8855 79.7445 36.4128C80.2001 35.9402 80.3531 35.3516 80.2033 34.6469L80.1758 34.5175C79.8854 33.1513 79.2293 32.1861 78.2075 31.6217C77.2001 31.0542 75.9127 30.9371 74.3452 31.2703C72.6914 31.6218 71.4535 32.2682 70.6315 33.2095C69.2854 34.7217 67.8252 36.5263 65.8173 36.7856L65.6571 36.8062C62.9888 37.1507 60.5437 34.9769 61.6456 32.5224C61.7715 32.2421 61.9089 31.9663 62.0579 31.6951C63.0086 29.9449 64.3993 28.4619 66.2301 27.246C68.0722 26.0128 70.3163 25.115 72.9624 24.5525C74.8031 24.1613 76.6106 24.0025 78.3848 24.0763C80.1734 24.147 81.8184 24.4963 83.3196 25.1241C84.8352 25.7489 86.1254 26.6921 87.1901 27.9538C88.2519 29.2011 88.9921 30.8098 89.4109 32.78L93.2348 50.7702C93.7463 53.1767 92.2102 55.5422 89.8037 56.0537L87.7436 56.4916C86.4749 56.7613 85.2277 55.9514 84.958 54.6826L84.5039 52.546C84.485 52.4573 84.3977 52.4006 84.309 52.4195C84.2487 52.4323 84.2008 52.4777 84.184 52.537C83.8696 53.6486 83.3608 54.6809 82.6576 55.6338C81.9311 56.5998 80.9896 57.4387 79.8333 58.1505C78.6739 58.8478 77.2745 59.3707 75.6351 59.7192ZM76.9187 52.8179C78.2705 52.5306 79.4075 52.0109 80.3298 51.2587C81.2491 50.4921 81.9057 49.586 82.2997 48.5403C82.6937 47.4946 82.7669 46.3894 82.5193 45.2245L82.0479 43.0067C81.929 42.4477 81.1932 42.1974 80.6956 42.4784C80.2372 42.7261 79.7126 42.9804 79.1217 43.2413C78.5278 43.4877 77.9323 43.727 77.3354 43.9591C76.7353 44.1769 76.1913 44.3752 75.7033 44.5541C74.6583 44.9415 73.7699 45.3934 73.0379 45.9097C72.306 46.426 71.7798 47.0263 71.4593 47.7107C71.1358 48.3807 71.0657 49.1471 71.2491 50.0099C71.515 51.261 72.1713 52.1211 73.2179 52.59C74.2758 53.0415 75.5094 53.1175 76.9187 52.8179Z" fill="white"/>
<path d="M49.7961 105.245C47.6821 105.694 45.7203 105.728 43.9106 105.346C42.0979 104.95 40.5554 104.128 39.2832 102.88C38.0223 101.615 37.1595 99.8896 36.6949 97.7037C36.3037 95.863 36.313 94.2453 36.723 92.8505C37.1329 91.4557 37.8393 90.2534 38.8421 89.2436C39.845 88.2339 41.0457 87.3774 42.4444 86.6743C43.8575 85.9681 45.3669 85.3617 46.9726 84.8551C48.8569 84.2441 50.3702 83.7271 51.5128 83.3039C52.6523 82.8663 53.4498 82.4111 53.9055 81.9385C54.3612 81.4659 54.5141 80.8773 54.3643 80.1726L54.3368 80.0432C54.0464 78.677 53.3903 77.7118 52.3686 77.1474C51.3611 76.5799 50.0737 76.4628 48.5062 76.796C46.8524 77.1475 45.6145 77.7939 44.7925 78.7352C43.4465 80.2474 41.9862 82.052 39.9784 82.3112L39.8182 82.3319C37.1498 82.6764 34.7047 80.5026 35.8067 78.0481C35.9325 77.7678 36.0699 77.492 36.219 77.2208C37.1696 75.4706 38.5603 73.9876 40.3911 72.7717C42.2333 71.5385 44.4773 70.6406 47.1234 70.0782C48.9641 69.687 50.7716 69.5282 52.5458 69.602C54.3345 69.6727 55.9794 70.022 57.4806 70.6498C58.9962 71.2746 60.2864 72.2178 61.3512 73.4795C62.4129 74.7268 63.1532 76.3355 63.5719 78.3057L67.3959 96.2959C67.9074 98.7024 66.3712 101.068 63.9647 101.579L61.9047 102.017C60.6359 102.287 59.3887 101.477 59.119 100.208L58.6649 98.0717C58.646 97.9829 58.5588 97.9263 58.47 97.9452C58.4098 97.958 58.3618 98.0034 58.3451 98.0627C58.0306 99.1743 57.5218 100.207 56.8187 101.159C56.0921 102.126 55.1507 102.964 53.9943 103.676C52.8349 104.374 51.4355 104.896 49.7961 105.245ZM51.0797 98.3436C52.4315 98.0563 53.5686 97.5366 54.4909 96.7844C55.4101 96.0178 56.0667 95.1117 56.4607 94.066C56.8547 93.0203 56.9279 91.9151 56.6803 90.7502L56.2089 88.5324C56.0901 87.9734 55.3542 87.7231 54.8566 88.004C54.3982 88.2518 53.8736 88.5061 53.2827 88.7669C52.6888 89.0134 52.0934 89.2527 51.4964 89.4848C50.8964 89.7026 50.3523 89.9009 49.8643 90.0797C48.8194 90.4672 47.9309 90.9191 47.199 91.4354C46.467 91.9517 45.9408 92.552 45.6203 93.2364C45.2968 93.9064 45.2267 94.6728 45.4101 95.5356C45.6761 96.7867 46.3323 97.6468 47.3789 98.1157C48.4368 98.5672 49.6704 98.6432 51.0797 98.3436Z" fill="white"/>
<path d="M95.5416 65.5612C97.3297 67.4051 95.8816 70.1773 93.4067 70.8646L91.8235 71.3043C90.5965 71.6451 89.3387 70.9472 88.3418 70.1549C87.7419 69.6661 87.017 69.3317 86.1671 69.1516C85.3285 68.9541 84.3771 68.9685 83.3129 69.1947C81.8892 69.4973 80.7526 70.0545 79.9031 70.8663C79.0506 71.6638 78.7297 72.5587 78.9406 73.5509C79.1088 74.3419 79.5673 74.9433 80.3162 75.3553C81.0651 75.7673 82.2441 75.9751 83.8531 75.9788L90.1066 75.9121C93.4685 75.8889 96.0963 76.4426 97.9899 77.5732C99.8836 78.7038 101.084 80.4627 101.592 82.8499C102.053 85.0214 101.818 87.0628 100.887 88.9743C99.9697 90.8827 98.5017 92.5324 96.4827 93.9235C94.475 95.2972 92.0331 96.2897 89.157 96.901C84.7709 97.8333 81.0823 97.6629 78.0912 96.3898C76.7816 95.8226 75.6517 95.0837 74.7017 94.173C72.6944 92.2488 74.2547 89.2312 76.9404 88.5113L77.1792 88.4473C79.3073 87.8768 81.4724 89.2754 83.5171 90.0961C84.7136 90.5633 86.1315 90.6226 87.7709 90.2741C89.3816 89.9318 90.6101 89.3475 91.4566 88.5213C92.3143 87.6776 92.645 86.7581 92.4484 85.7628C92.2568 84.9318 91.7592 84.3236 90.9559 83.9382C90.1494 83.5385 88.9966 83.3476 87.4974 83.3657L81.5165 83.442C78.1433 83.4827 75.4961 82.873 73.575 81.613C71.6682 80.3499 70.4519 78.4816 69.9262 76.0081C69.4738 73.8798 69.6593 71.924 70.4826 70.1407C71.3204 68.3544 72.7004 66.8211 74.6227 65.5407C76.5594 64.2573 78.9442 63.3145 81.7772 62.7123C85.962 61.8228 89.4432 62.0072 92.2207 63.2656C93.5147 63.8474 94.6216 64.6126 95.5416 65.5612Z" fill="white"/>
</g>
<defs>
<clipPath id="clip0_1130_491">
<rect width="128" height="128" fill="white" transform="translate(0 0.833984)"/>
</clipPath>
</defs>
</svg>
